<svg xmlns="http://www.w3.org/2000/svg" width="584" height="574" viewBox="0 0 584 574">
<g>
<path d="M 0.00 0.00 L 584.00 0.00 L 584.00 574.00 L 0.00 574.00 ZM 89.67 375.33 C90.03,375.70 140.94,376.00 202.79,376.00 L 207.94 376.00 C309.10,376.00 326.56,376.00 342.78,371.52 C346.43,370.51 350.03,369.27 354.50,367.75 C365.17,364.13 374.55,359.53 389.49,350.60 C402.20,343.01 408.61,341.07 414.60,343.01 C421.31,345.18 427.98,348.94 444.43,359.82 C453.19,365.61 463.42,371.63 467.15,373.20 C473.79,375.99 474.28,376.04 490.14,375.77 C502.01,375.57 506.45,375.17 506.75,374.25 C507.07,373.28 503.45,372.99 490.83,372.98 C472.42,372.95 469.11,372.10 457.50,364.45 L 451.50 360.50 L 481.25 360.00 C500.09,359.68 511.00,359.13 511.00,358.50 C511.00,357.86 499.36,357.42 478.50,357.29 L 446.01 357.08 L 438.25 351.95 C433.99,349.14 426.87,345.07 422.43,342.92 C411.24,337.49 408.26,337.62 395.17,344.12 L 384.84 349.25 L 373.56 338.37 C367.36,332.39 362.22,327.05 362.14,326.49 C361.82,324.17 377.51,318.54 389.00,316.85 C403.29,314.76 413.43,317.80 452.00,335.80 C472.86,345.53 475.01,346.00 498.27,346.00 C511.34,346.00 515.07,345.72 514.75,344.75 C514.45,343.84 509.12,343.32 495.10,342.84 C473.87,342.12 472.21,341.76 456.35,334.54 L 446.50 330.06 L 482.00 329.78 C512.77,329.54 517.50,329.30 517.50,328.00 C517.50,326.69 512.37,326.48 478.00,326.34 L 438.50 326.19 L 431.91 323.21 C423.31,319.32 408.68,314.40 403.00,313.49 C400.52,313.09 398.14,312.55 397.69,312.29 C397.25,312.03 399.69,310.49 403.12,308.86 C409.84,305.69 418.53,300.15 432.00,290.47 C444.34,281.60 454.00,276.00 456.96,276.00 C460.79,276.00 462.83,277.67 482.00,296.50 C494.68,308.96 498.77,313.03 503.60,314.36 C505.95,315.00 508.48,315.00 512.25,315.00 L 512.62 315.00 C517.62,315.00 519.00,314.68 519.00,313.50 C519.00,312.31 517.56,312.00 512.07,312.00 C508.25,312.00 504.06,311.59 502.75,311.09 C499.94,310.03 488.69,299.97 489.45,299.21 C489.74,298.93 495.94,298.79 503.24,298.91 C517.40,299.14 520.21,298.70 519.31,296.38 C518.85,295.17 515.88,294.94 502.25,295.05 L 485.74 295.18 L 479.84 289.34 L 473.93 283.50 L 495.97 283.00 C526.29,282.31 525.06,280.65 493.75,280.00 L 469.50 279.50 L 465.79 276.66 C459.96,272.20 455.76,272.15 447.74,276.41 C441.88,279.52 440.05,280.00 434.17,280.00 C427.86,280.00 427.16,279.78 424.44,276.89 C417.89,269.95 409.89,267.02 407.00,270.50 C405.26,272.59 403.33,272.37 402.71,270.01 C402.20,268.04 402.82,268.01 459.35,267.76 C509.37,267.53 516.50,267.31 516.50,266.00 C516.50,264.69 509.30,264.47 458.57,264.27 C426.71,264.15 400.33,263.92 399.95,263.77 C399.26,263.50 394.00,253.56 394.00,252.53 C394.00,252.24 421.00,252.00 454.00,252.00 C506.53,252.00 514.00,251.81 514.00,250.51 C514.00,249.20 506.28,248.98 452.82,248.76 L 391.64 248.50 L 388.41 243.00 C386.64,239.98 385.40,237.16 385.67,236.73 C385.93,236.30 413.80,236.02 447.60,236.11 C481.40,236.20 509.37,235.96 509.75,235.58 C511.96,233.37 502.94,233.02 444.65,233.04 L 381.81 233.06 L 377.93 229.55 C373.14,225.23 367.99,223.00 362.78,223.00 C358.70,223.00 355.29,224.86 349.50,230.21 L 346.50 232.99 L 217.50 233.01 C145.78,233.02 87.89,233.42 87.12,233.90 C86.36,234.38 86.02,235.22 86.35,235.75 C86.74,236.38 132.02,236.61 214.11,236.39 C284.05,236.20 341.68,236.30 342.17,236.60 C342.66,236.91 340.75,239.82 337.93,243.08 L 332.80 249.00 L 207.40 249.00 C96.60,249.00 82.00,249.17 82.00,250.50 C82.00,251.83 96.39,252.00 205.50,252.00 C273.42,252.00 329.00,252.36 329.00,252.80 C329.00,253.25 327.46,255.10 325.58,256.92 L 322.17 260.23 L 318.74 257.61 C314.10,254.08 310.29,254.25 305.00,258.25 C302.64,260.04 299.95,262.07 299.02,262.76 C297.69,263.76 274.29,264.08 188.41,264.26 C92.37,264.47 79.50,264.68 79.50,266.00 C79.50,267.32 92.14,267.53 186.25,267.75 C244.96,267.89 293.00,268.27 293.00,268.60 C293.00,268.92 290.92,271.62 288.38,274.59 L 283.76 280.00 L 277.75 280.00 C272.27,280.00 271.40,279.69 267.79,276.43 C263.33,272.40 256.16,269.00 252.17,269.01 C248.87,269.02 240.20,272.98 235.31,276.71 L 231.66 279.50 L 154.58 280.00 C103.94,280.33 77.59,280.84 77.75,281.50 C77.91,282.15 103.71,282.59 152.00,282.76 C192.70,282.90 225.97,283.35 225.94,283.76 C225.90,284.17 223.09,286.86 219.69,289.75 L 213.50 295.00 L 145.36 295.00 C87.84,295.00 77.13,295.22 76.68,296.40 C76.35,297.26 76.98,298.03 78.32,298.40 C79.52,298.72 109.22,298.95 144.33,298.91 C179.44,298.87 208.38,299.04 208.63,299.30 C208.88,299.55 206.33,301.84 202.95,304.38 L 196.80 309.00 L 165.15 309.14 C107.45,309.38 77.72,310.32 77.20,311.91 C76.80,313.11 85.44,313.21 137.11,312.60 L 197.50 311.89 L 201.00 309.57 C202.93,308.30 209.90,302.44 216.50,296.56 C237.33,277.98 245.36,272.69 252.70,272.67 C258.40,272.66 263.19,275.99 275.50,288.50 C286.75,299.94 292.55,304.78 298.75,307.90 C301.09,309.08 303.00,310.17 303.00,310.33 C303.00,310.48 298.94,314.12 293.97,318.41 L 284.94 326.22 L 268.06 326.28 L 251.19 326.35 L 242.46 321.92 C234.47,317.87 233.12,317.51 226.61,317.58 C220.57,317.65 217.99,318.31 209.50,321.94 L 199.50 326.21 L 139.00 326.36 C85.95,326.48 78.50,326.68 78.50,328.00 C78.50,329.31 85.56,329.57 134.00,330.01 C163.83,330.29 187.46,330.62 187.46,330.75 C187.46,330.76 187.44,330.76 187.42,330.76 C186.27,330.89 185.01,331.32 184.62,331.72 C184.22,332.11 182.01,332.96 179.70,333.60 C177.39,334.24 173.02,335.46 170.00,336.31 C155.15,340.46 147.01,341.24 113.70,341.73 C89.79,342.09 81.01,342.53 81.29,343.36 C81.56,344.18 90.59,344.50 113.58,344.50 C139.91,344.50 147.34,344.18 156.00,342.68 C165.21,341.09 183.72,336.03 188.00,333.94 C188.82,333.54 191.30,332.52 193.50,331.69 C195.70,330.86 202.00,328.35 207.50,326.12 C220.40,320.89 225.73,319.54 230.21,320.38 C234.08,321.11 249.82,328.99 258.59,334.60 C261.51,336.47 264.38,338.00 264.95,338.00 C265.53,338.00 266.00,338.64 266.00,339.43 C266.00,341.06 257.41,346.51 247.66,351.07 C245.55,352.06 243.82,352.88 242.03,353.57 C233.26,356.93 223.19,356.93 159.96,356.96 L 157.25 356.96 C93.71,357.00 85.00,357.18 85.00,358.50 C85.00,359.82 93.81,360.00 158.25,360.00 C226.68,360.00 231.93,359.88 238.00,358.14 C244.06,356.40 255.89,350.77 264.00,345.77 C268.14,343.21 282.23,332.67 286.50,328.93 C288.15,327.49 293.33,322.96 298.00,318.86 C309.77,308.55 319.27,301.99 323.42,301.32 C326.27,300.86 327.91,301.38 332.13,304.08 C336.56,306.92 381.00,348.83 381.77,350.88 C382.14,351.88 368.08,359.22 358.72,362.93 C348.39,367.01 332.87,370.65 320.21,371.95 C313.66,372.62 269.75,373.00 199.46,373.00 C138.71,373.00 89.00,373.38 89.00,373.83 C89.00,374.29 89.30,374.97 89.67,375.33 ZM 391.05 285.35 C385.58,290.66 380.50,295.00 379.75,295.00 C379.00,295.00 376.84,293.83 374.94,292.39 C370.36,288.92 364.08,286.05 361.01,286.02 C359.65,286.01 356.16,287.20 353.26,288.66 C350.37,290.13 347.84,291.14 347.66,290.91 C347.47,290.69 345.34,287.80 342.92,284.50 C340.51,281.20 335.46,274.78 331.70,270.24 L 324.88 261.98 L 333.69 252.28 C356.83,226.80 358.53,225.41 365.23,226.30 C374.46,227.54 381.86,236.11 393.75,259.34 C397.73,267.13 400.99,273.99 401.00,274.60 C401.00,275.20 396.52,280.04 391.05,285.35 ZM 313.19 303.00 C309.28,305.75 305.94,307.99 305.79,307.97 C303.54,307.77 292.28,300.19 287.22,295.49 L 280.64 289.38 L 283.79 284.81 C287.95,278.76 301.50,264.40 306.40,260.83 C312.66,256.28 314.17,256.82 324.45,267.25 C331.98,274.90 345.00,291.40 345.00,293.31 C345.00,293.59 342.75,295.69 340.01,297.99 L 335.02 302.17 L 331.64 300.09 C325.90,296.54 321.37,297.25 313.19,303.00 ZM 117.50 174.00 C118.18,175.10 475.59,175.48 478.44,174.38 C479.69,173.91 479.79,173.45 478.90,172.38 C477.93,171.21 449.81,171.00 297.94,171.00 C179.14,171.00 117.91,171.34 117.50,172.00 C117.16,172.55 117.16,173.45 117.50,174.00 ZM 96.00 390.00 C96.00,392.00 96.42,392.00 297.75,391.75 C476.30,391.53 499.50,391.33 499.50,390.00 C499.50,388.67 476.30,388.47 297.75,388.25 C96.42,388.00 96.00,388.00 96.00,390.00 ZM 137.13 452.66 C138.79,454.66 457.21,454.66 458.87,452.66 C459.48,451.92 459.69,451.02 459.32,450.66 C458.46,449.80 137.54,449.80 136.68,450.66 C136.31,451.02 136.52,451.92 137.13,452.66 ZM 99.19 204.25 C98.87,205.92 108.67,205.99 297.68,205.75 C473.63,205.53 496.50,205.33 496.50,204.00 C496.50,202.67 473.78,202.50 298.01,202.50 C109.67,202.50 99.51,202.59 99.19,204.25 ZM 143.00 143.20 C143.00,143.64 212.75,144.00 298.00,144.00 C429.82,144.00 453.00,143.79 453.00,142.61 C453.00,141.84 452.29,140.94 451.42,140.61 C450.55,140.27 381.34,140.00 297.62,140.00 C144.66,140.00 143.00,140.03 143.00,143.20 ZM 92.00 219.50 C92.00,220.83 115.56,221.00 298.00,221.00 C480.44,221.00 504.00,220.83 504.00,219.50 C504.00,218.17 480.44,218.00 298.00,218.00 C115.56,218.00 92.00,218.17 92.00,219.50 ZM 107.00 188.50 C107.00,189.83 128.89,190.00 298.00,190.00 C467.11,190.00 489.00,189.83 489.00,188.50 C489.00,187.17 467.11,187.00 298.00,187.00 C128.89,187.00 107.00,187.17 107.00,188.50 ZM 366.00 320.39 C362.98,321.82 359.83,322.96 359.00,322.94 C358.17,322.92 353.06,318.67 347.63,313.49 L 337.76 304.07 L 341.02 301.29 C347.63,295.63 356.40,290.02 359.53,289.43 C363.19,288.74 366.99,290.39 374.00,295.72 C382.18,301.93 393.03,312.14 392.45,313.08 C392.14,313.59 389.94,314.00 387.57,314.00 C382.74,314.00 374.23,316.52 366.00,320.39 ZM 103.67 406.34 C104.04,406.70 191.64,406.89 298.34,406.75 C452.46,406.55 492.42,406.24 492.75,405.25 C493.08,404.25 453.71,404.00 298.08,404.00 C190.79,404.00 103.00,404.38 103.00,404.83 C103.00,405.29 103.30,405.97 103.67,406.34 ZM 402.17 305.91 C398.81,307.61 395.48,308.98 394.78,308.95 C394.08,308.93 390.87,306.48 387.66,303.52 L 381.82 298.13 L 389.08 291.32 C393.08,287.57 397.47,283.39 398.84,282.04 C400.21,280.69 403.57,277.67 406.30,275.33 C411.05,271.29 411.40,271.16 413.99,272.49 C415.48,273.27 420.00,276.98 424.02,280.76 L 431.35 287.61 L 428.33 289.56 C426.67,290.63 421.48,294.05 416.80,297.16 C412.12,300.28 405.54,304.21 402.17,305.91 ZM 123.67 437.34 C124.04,437.70 202.64,437.89 298.34,437.75 C436.46,437.55 472.42,437.24 472.75,436.25 C473.08,435.25 437.71,435.00 298.08,435.00 C201.79,435.00 123.00,435.38 123.00,435.83 C123.00,436.29 123.30,436.97 123.67,437.34 ZM 129.50 157.99 C130.50,159.61 467.29,159.37 466.75,157.75 C466.42,156.76 431.78,156.45 298.92,156.24 C206.84,156.10 130.91,156.21 130.19,156.49 C129.46,156.76 129.15,157.44 129.50,157.99 ZM 183.53 112.05 C184.24,113.20 408.53,113.24 411.48,112.09 C413.41,111.33 413.41,111.29 411.29,110.16 C408.37,108.59 187.83,108.49 184.91,110.05 C183.83,110.63 183.21,111.53 183.53,112.05 ZM 112.25 420.75 C111.92,421.75 149.09,421.95 297.42,421.75 C420.30,421.59 483.00,421.16 483.00,420.50 C483.00,418.89 112.79,419.14 112.25,420.75 ZM 153.00 467.50 C154.10,468.83 171.12,468.98 298.29,468.75 C412.46,468.55 442.42,468.24 442.75,467.25 C443.08,466.25 413.58,466.00 297.46,466.00 C167.91,466.00 151.89,466.17 153.00,467.50 ZM 161.25 126.75 C160.92,127.75 188.71,128.00 298.00,128.00 C407.29,128.00 435.08,127.75 434.75,126.75 C434.14,124.91 161.86,124.91 161.25,126.75 ZM 172.50 483.00 C173.36,484.39 423.50,483.90 423.50,482.50 C423.50,481.48 175.84,480.47 173.19,481.49 C172.46,481.76 172.15,482.44 172.50,483.00 ZM 199.67 499.34 C200.04,499.71 244.44,499.90 298.34,499.75 C375.66,499.55 396.42,499.24 396.75,498.25 C397.08,497.26 376.91,497.00 298.08,497.00 C243.59,497.00 199.00,497.38 199.00,497.83 C199.00,498.29 199.30,498.97 199.67,499.34 ZM 214.00 96.11 C214.00,96.62 249.38,97.00 298.00,97.00 C346.62,97.00 382.00,96.62 382.00,96.11 C382.00,95.62 381.29,94.94 380.42,94.61 C378.35,93.81 217.65,93.81 215.58,94.61 C214.71,94.94 214.00,95.62 214.00,96.11 ZM 246.44 515.53 C249.30,517.69 346.22,517.66 350.00,515.50 C352.19,514.25 345.81,514.07 298.50,514.07 C250.81,514.06 244.73,514.24 246.44,515.53 ZM 273.85 80.75 C272.85,81.75 277.69,81.99 298.05,81.97 C321.01,81.94 323.30,81.79 321.50,80.42 C319.82,79.15 315.92,78.95 297.30,79.20 C281.21,79.42 274.75,79.84 273.85,80.75 ZM 274.30 330.20 L 279.61 330.50 L 274.95 334.15 L 270.28 337.81 L 264.07 334.15 L 257.86 330.50 L 263.43 330.20 C266.49,330.04 271.39,330.04 274.30,330.20 ZM 281.00 283.88 C281.00,285.85 278.50,286.84 276.75,285.56 C274.23,283.72 274.58,283.00 278.00,283.00 C279.65,283.00 281.00,283.39 281.00,283.88 ZM 436.00 284.00 C436.00,284.55 435.10,285.00 434.00,285.00 C432.90,285.00 432.00,284.55 432.00,284.00 C432.00,283.45 432.90,283.00 434.00,283.00 C435.10,283.00 436.00,283.45 436.00,284.00 Z" fill="rgb(22,22,22)"/>
<path d="M 246.44 515.53 C244.73,514.24 250.81,514.06 298.50,514.07 C345.81,514.07 352.19,514.25 350.00,515.50 C346.22,517.66 249.30,517.69 246.44,515.53 ZM 199.67 499.34 C199.30,498.97 199.00,498.29 199.00,497.83 C199.00,497.38 243.59,497.00 298.08,497.00 C376.91,497.00 397.08,497.26 396.75,498.25 C396.42,499.24 375.66,499.55 298.34,499.75 C244.44,499.90 200.04,499.71 199.67,499.34 ZM 172.50 483.00 C172.15,482.44 172.46,481.76 173.19,481.49 C175.84,480.47 423.50,481.48 423.50,482.50 C423.50,483.90 173.36,484.39 172.50,483.00 ZM 153.00 467.50 C151.89,466.17 167.91,466.00 297.46,466.00 C413.58,466.00 443.08,466.25 442.75,467.25 C442.42,468.24 412.46,468.55 298.29,468.75 C171.12,468.98 154.10,468.83 153.00,467.50 ZM 137.13 452.66 C136.52,451.92 136.31,451.02 136.68,450.66 C137.54,449.80 458.46,449.80 459.32,450.66 C459.69,451.02 459.48,451.92 458.87,452.66 C457.21,454.66 138.79,454.66 137.13,452.66 ZM 123.67 437.34 C123.30,436.97 123.00,436.29 123.00,435.83 C123.00,435.38 201.79,435.00 298.08,435.00 C437.71,435.00 473.08,435.25 472.75,436.25 C472.42,437.24 436.46,437.55 298.34,437.75 C202.64,437.89 124.04,437.70 123.67,437.34 ZM 112.25 420.75 C112.79,419.14 483.00,418.89 483.00,420.50 C483.00,421.16 420.30,421.59 297.42,421.75 C149.09,421.95 111.92,421.75 112.25,420.75 ZM 103.67 406.34 C103.30,405.97 103.00,405.29 103.00,404.83 C103.00,404.38 190.79,404.00 298.08,404.00 C453.71,404.00 493.08,404.25 492.75,405.25 C492.42,406.24 452.46,406.55 298.34,406.75 C191.64,406.89 104.04,406.70 103.67,406.34 ZM 96.00 390.00 C96.00,388.00 96.42,388.00 297.75,388.25 C476.30,388.47 499.50,388.67 499.50,390.00 C499.50,391.33 476.30,391.53 297.75,391.75 C96.42,392.00 96.00,392.00 96.00,390.00 ZM 89.67 375.33 C89.30,374.97 89.00,374.29 89.00,373.83 C89.00,373.38 138.71,373.00 199.46,373.00 C269.75,373.00 313.66,372.62 320.21,371.95 C332.87,370.65 348.39,367.01 358.72,362.93 C368.08,359.22 382.14,351.88 381.77,350.88 C381.00,348.83 336.56,306.92 332.13,304.08 C327.91,301.38 326.27,300.86 323.42,301.32 C319.27,301.99 309.77,308.55 298.00,318.86 C293.33,322.96 288.15,327.49 286.50,328.93 C282.23,332.67 268.14,343.21 264.00,345.77 C255.89,350.77 244.06,356.40 238.00,358.14 C231.93,359.88 226.68,360.00 158.25,360.00 C93.81,360.00 85.00,359.82 85.00,358.50 C85.00,357.18 93.71,357.00 157.25,356.96 C236.07,356.93 235.00,357.00 247.66,351.07 C257.41,346.51 266.00,341.06 266.00,339.43 C266.00,338.64 265.53,338.00 264.95,338.00 C264.38,338.00 261.51,336.47 258.59,334.60 C249.82,328.99 234.08,321.11 230.21,320.38 C225.73,319.54 220.40,320.89 207.50,326.12 C202.00,328.35 195.70,330.86 193.50,331.69 C191.30,332.52 188.82,333.54 188.00,333.94 C183.72,336.03 165.21,341.09 156.00,342.68 C147.34,344.18 139.91,344.50 113.58,344.50 C90.59,344.50 81.56,344.18 81.29,343.36 C81.01,342.53 89.79,342.09 113.70,341.73 C147.01,341.24 155.15,340.46 170.00,336.31 C173.02,335.46 177.39,334.24 179.70,333.60 C182.01,332.96 184.22,332.11 184.62,331.72 C185.01,331.32 186.27,330.89 187.42,330.76 C188.56,330.63 164.52,330.29 134.00,330.01 C85.56,329.57 78.50,329.31 78.50,328.00 C78.50,326.68 85.95,326.48 139.00,326.36 L 199.50 326.21 L 209.50 321.94 C217.99,318.31 220.57,317.65 226.61,317.58 C233.12,317.51 234.47,317.87 242.46,321.92 L 251.19 326.35 L 268.06 326.28 L 284.94 326.22 L 293.97 318.41 C298.94,314.12 303.00,310.48 303.00,310.33 C303.00,310.17 301.09,309.08 298.75,307.90 C292.55,304.78 286.75,299.94 275.50,288.50 C263.19,275.99 258.40,272.66 252.70,272.67 C245.36,272.69 237.33,277.98 216.50,296.56 C209.90,302.44 202.93,308.30 201.00,309.57 L 197.50 311.89 L 137.11 312.60 C85.44,313.21 76.80,313.11 77.20,311.91 C77.72,310.32 107.45,309.38 165.15,309.14 L 196.80 309.00 L 202.95 304.38 C206.33,301.84 208.88,299.55 208.63,299.30 C208.38,299.04 179.44,298.87 144.33,298.91 C109.22,298.95 79.52,298.72 78.32,298.40 C76.98,298.03 76.35,297.26 76.68,296.40 C77.13,295.22 87.84,295.00 145.36,295.00 L 213.50 295.00 L 219.69 289.75 C223.09,286.86 225.90,284.17 225.94,283.76 C225.97,283.35 192.70,282.90 152.00,282.76 C103.71,282.59 77.91,282.15 77.75,281.50 C77.59,280.84 103.94,280.33 154.58,280.00 L 231.66 279.50 L 235.31 276.71 C240.20,272.98 248.87,269.02 252.17,269.01 C256.16,269.00 263.33,272.40 267.79,276.43 C271.40,279.69 272.27,280.00 277.75,280.00 L 283.76 280.00 L 288.38 274.59 C290.92,271.62 293.00,268.92 293.00,268.60 C293.00,268.27 244.96,267.89 186.25,267.75 C92.14,267.53 79.50,267.32 79.50,266.00 C79.50,264.68 92.37,264.47 188.41,264.26 C274.29,264.08 297.69,263.76 299.02,262.76 C299.95,262.07 302.64,260.04 305.00,258.25 C310.29,254.25 314.10,254.08 318.74,257.61 L 322.17 260.23 L 325.58 256.92 C327.46,255.10 329.00,253.25 329.00,252.80 C329.00,252.36 273.42,252.00 205.50,252.00 C96.39,252.00 82.00,251.83 82.00,250.50 C82.00,249.17 96.60,249.00 207.40,249.00 L 332.80 249.00 L 337.93 243.08 C340.75,239.82 342.66,236.91 342.17,236.60 C341.68,236.30 284.05,236.20 214.11,236.39 C132.02,236.61 86.74,236.38 86.35,235.75 C86.02,235.22 86.36,234.38 87.12,233.90 C87.89,233.42 145.78,233.02 217.50,233.01 L 346.50 232.99 L 349.50 230.21 C355.29,224.86 358.70,223.00 362.78,223.00 C367.99,223.00 373.14,225.23 377.93,229.55 L 381.81 233.06 L 444.65 233.04 C502.94,233.02 511.96,233.37 509.75,235.58 C509.37,235.96 481.40,236.20 447.60,236.11 C413.80,236.02 385.93,236.30 385.67,236.73 C385.40,237.16 386.64,239.98 388.41,243.00 L 391.64 248.50 L 452.82 248.76 C506.28,248.98 514.00,249.20 514.00,250.51 C514.00,251.81 506.53,252.00 454.00,252.00 C421.00,252.00 394.00,252.24 394.00,252.53 C394.00,253.56 399.26,263.50 399.95,263.77 C400.33,263.92 426.71,264.15 458.57,264.27 C509.30,264.47 516.50,264.69 516.50,266.00 C516.50,267.31 509.37,267.53 459.35,267.76 C402.82,268.01 402.20,268.04 402.71,270.01 C403.33,272.37 405.26,272.59 407.00,270.50 C409.89,267.02 417.89,269.95 424.44,276.89 C427.16,279.78 427.86,280.00 434.17,280.00 C440.05,280.00 441.88,279.52 447.74,276.41 C455.76,272.15 459.96,272.20 465.79,276.66 L 469.50 279.50 L 493.75 280.00 C525.06,280.65 526.29,282.31 495.97,283.00 L 473.93 283.50 L 479.84 289.34 L 485.74 295.18 L 502.25 295.05 C515.88,294.94 518.85,295.17 519.31,296.38 C520.21,298.70 517.40,299.14 503.24,298.91 C495.94,298.79 489.74,298.93 489.45,299.21 C488.69,299.97 499.94,310.03 502.75,311.09 C504.06,311.59 508.25,312.00 512.07,312.00 C517.56,312.00 519.00,312.31 519.00,313.50 C519.00,314.68 517.62,315.00 512.62,315.00 C500.70,315.00 501.04,315.20 482.00,296.50 C462.83,277.67 460.79,276.00 456.96,276.00 C454.00,276.00 444.34,281.60 432.00,290.47 C418.53,300.15 409.84,305.69 403.12,308.86 C399.69,310.49 397.25,312.03 397.69,312.29 C398.14,312.55 400.52,313.09 403.00,313.49 C408.68,314.40 423.31,319.32 431.91,323.21 L 438.50 326.19 L 478.00 326.34 C512.37,326.48 517.50,326.69 517.50,328.00 C517.50,329.30 512.77,329.54 482.00,329.78 L 446.50 330.06 L 456.35 334.54 C472.21,341.76 473.87,342.12 495.10,342.84 C509.12,343.32 514.45,343.84 514.75,344.75 C515.07,345.72 511.34,346.00 498.27,346.00 C475.01,346.00 472.86,345.53 452.00,335.80 C413.43,317.80 403.29,314.76 389.00,316.85 C377.51,318.54 361.82,324.17 362.14,326.49 C362.22,327.05 367.36,332.39 373.56,338.37 L 384.84 349.25 L 395.17 344.12 C408.26,337.62 411.24,337.49 422.43,342.92 C426.87,345.07 433.99,349.14 438.25,351.95 L 446.01 357.08 L 478.50 357.29 C499.36,357.42 511.00,357.86 511.00,358.50 C511.00,359.13 500.09,359.68 481.25,360.00 L 451.50 360.50 L 457.50 364.45 C469.11,372.10 472.42,372.95 490.83,372.98 C503.45,372.99 507.07,373.28 506.75,374.25 C506.45,375.17 502.01,375.57 490.14,375.77 C474.28,376.04 473.79,375.99 467.15,373.20 C463.42,371.63 453.19,365.61 444.43,359.82 C427.98,348.94 421.31,345.18 414.60,343.01 C408.61,341.07 402.20,343.01 389.49,350.60 C374.55,359.53 365.17,364.13 354.50,367.75 C329.85,376.11 331.95,376.00 202.79,376.00 C140.94,376.00 90.03,375.70 89.67,375.33 ZM 274.30 330.20 C271.39,330.04 266.49,330.04 263.43,330.20 L 257.86 330.50 L 264.07 334.15 L 270.28 337.81 L 274.95 334.15 L 279.61 330.50 L 274.30 330.20 ZM 366.00 320.39 C374.23,316.52 382.74,314.00 387.57,314.00 C389.94,314.00 392.14,313.59 392.45,313.08 C393.03,312.14 382.18,301.93 374.00,295.72 C366.99,290.39 363.19,288.74 359.53,289.43 C356.40,290.02 347.63,295.63 341.02,301.29 L 337.76 304.07 L 347.63 313.49 C353.06,318.67 358.17,322.92 359.00,322.94 C359.83,322.96 362.98,321.82 366.00,320.39 ZM 402.17 305.91 C405.54,304.21 412.12,300.28 416.80,297.16 C421.48,294.05 426.67,290.63 428.33,289.56 L 431.35 287.61 L 424.02 280.76 C420.00,276.98 415.48,273.27 413.99,272.49 C411.40,271.16 411.05,271.29 406.30,275.33 C403.57,277.67 400.21,280.69 398.84,282.04 C397.47,283.39 393.08,287.57 389.08,291.32 L 381.82 298.13 L 387.66 303.52 C390.87,306.48 394.08,308.93 394.78,308.95 C395.48,308.98 398.81,307.61 402.17,305.91 ZM 313.19 303.00 C321.37,297.25 325.90,296.54 331.64,300.09 L 335.02 302.17 L 340.01 297.99 C342.75,295.69 345.00,293.59 345.00,293.31 C345.00,291.40 331.98,274.90 324.45,267.25 C314.17,256.82 312.66,256.28 306.40,260.83 C301.50,264.40 287.95,278.76 283.79,284.81 L 280.64 289.38 L 287.22 295.49 C292.28,300.19 303.54,307.77 305.79,307.97 C305.94,307.99 309.28,305.75 313.19,303.00 ZM 391.05 285.35 C396.52,280.04 401.00,275.20 401.00,274.60 C400.99,273.99 397.73,267.13 393.75,259.34 C381.86,236.11 374.46,227.54 365.23,226.30 C358.53,225.41 356.83,226.80 333.69,252.28 L 324.88 261.98 L 331.70 270.24 C335.46,274.78 340.51,281.20 342.92,284.50 C345.34,287.80 347.47,290.69 347.66,290.91 C347.84,291.14 350.37,290.13 353.26,288.66 C356.16,287.20 359.65,286.01 361.01,286.02 C364.08,286.05 370.36,288.92 374.94,292.39 C376.84,293.83 379.00,295.00 379.75,295.00 C380.50,295.00 385.58,290.66 391.05,285.35 ZM 281.00 283.88 C281.00,283.39 279.65,283.00 278.00,283.00 C274.58,283.00 274.23,283.72 276.75,285.56 C278.50,286.84 281.00,285.85 281.00,283.88 ZM 436.00 284.00 C436.00,283.45 435.10,283.00 434.00,283.00 C432.90,283.00 432.00,283.45 432.00,284.00 C432.00,284.55 432.90,285.00 434.00,285.00 C435.10,285.00 436.00,284.55 436.00,284.00 ZM 92.00 219.50 C92.00,218.17 115.56,218.00 298.00,218.00 C480.44,218.00 504.00,218.17 504.00,219.50 C504.00,220.83 480.44,221.00 298.00,221.00 C115.56,221.00 92.00,220.83 92.00,219.50 ZM 99.19 204.25 C99.51,202.59 109.67,202.50 298.01,202.50 C473.78,202.50 496.50,202.67 496.50,204.00 C496.50,205.33 473.63,205.53 297.68,205.75 C108.67,205.99 98.87,205.92 99.19,204.25 ZM 107.00 188.50 C107.00,187.17 128.89,187.00 298.00,187.00 C467.11,187.00 489.00,187.17 489.00,188.50 C489.00,189.83 467.11,190.00 298.00,190.00 C128.89,190.00 107.00,189.83 107.00,188.50 ZM 117.50 174.00 C117.16,173.45 117.16,172.55 117.50,172.00 C117.91,171.34 179.14,171.00 297.94,171.00 C449.81,171.00 477.93,171.21 478.90,172.38 C479.79,173.45 479.69,173.91 478.44,174.38 C475.59,175.48 118.18,175.10 117.50,174.00 ZM 129.50 157.99 C129.15,157.44 129.46,156.76 130.19,156.49 C130.91,156.21 206.84,156.10 298.92,156.24 C431.78,156.45 466.42,156.76 466.75,157.75 C467.29,159.37 130.50,159.61 129.50,157.99 ZM 143.00 143.20 C143.00,140.03 144.66,140.00 297.62,140.00 C381.34,140.00 450.55,140.27 451.42,140.61 C452.29,140.94 453.00,141.84 453.00,142.61 C453.00,143.79 429.82,144.00 298.00,144.00 C212.75,144.00 143.00,143.64 143.00,143.20 ZM 161.25 126.75 C161.86,124.91 434.14,124.91 434.75,126.75 C435.08,127.75 407.29,128.00 298.00,128.00 C188.71,128.00 160.92,127.75 161.25,126.75 ZM 183.53 112.05 C183.21,111.53 183.83,110.63 184.91,110.05 C187.83,108.49 408.37,108.59 411.29,110.16 C413.41,111.29 413.41,111.33 411.48,112.09 C408.53,113.24 184.24,113.20 183.53,112.05 ZM 214.00 96.11 C214.00,95.62 214.71,94.94 215.58,94.61 C217.65,93.81 378.35,93.81 380.42,94.61 C381.29,94.94 382.00,95.62 382.00,96.11 C382.00,96.62 346.62,97.00 298.00,97.00 C249.38,97.00 214.00,96.62 214.00,96.11 ZM 273.85 80.75 C274.75,79.84 281.21,79.42 297.30,79.20 C315.92,78.95 319.82,79.15 321.50,80.42 C323.30,81.79 321.01,81.94 298.05,81.97 C277.69,81.99 272.85,81.75 273.85,80.75 Z" fill="rgb(185,185,185)"/>
</g>
</svg>