<svg width="112" height="32" viewBox="0 0 112 32" fill="none" xmlns="http://www.w3.org/2000/svg">
<path d="M70.7168 2.60056C71.9202 1.17695 74.5273 -0.489153 77.1641 0.134739C79.6454 0.704442 81.0545 2.14787 82.252 3.39548C84.5845 5.99361 86.1344 8.73268 87.6768 11.4658C90.6865 16.6632 93.2775 23.3395 96.7217 26.1933C98.6408 27.1894 101.124 27.4389 103.589 27.332C105.76 27.2582 107.532 26.8432 110.215 26.5517C110.512 26.5633 110.797 26.6854 111.007 26.8984C111.217 27.1115 111.336 27.3972 111.336 27.6943C111.336 27.9915 111.217 28.2771 111.007 28.4902C110.797 28.7033 110.512 28.8253 110.215 28.8369C108.555 29.1901 106.041 29.8646 103.812 30.0996C101.099 30.3979 98.1665 30.4116 95.3125 29.1953C88.9465 24.5146 87.3971 18.7531 83.8906 13.6953C81.0409 8.89409 75.9584 2.49736 74.6074 6.06247C70.9185 10.2846 68.1514 15.4659 63.7783 20.2236C59.4475 25.0703 53.0246 28.1525 46.8447 29.2773C42.6009 30.1043 38.4289 30.4986 34.2529 30.7695C25.3103 31.3166 16.4043 30.8516 7.61426 29.7695C5.39936 29.4985 3.16631 29.1692 1.0791 28.8369C0.793147 28.8035 0.518622 28.6786 0.316406 28.4677C0.11426 28.257 1.71543e-05 27.9804 0 27.6943C3.97234e-05 27.4082 0.114202 27.1316 0.316406 26.9209C0.51863 26.71 0.793121 26.5851 1.0791 26.5517C3.39596 26.3811 5.48905 26.2502 7.73047 26.1152C16.492 25.5714 25.2474 25.215 33.8691 24.6865C37.8857 24.428 41.8818 24.059 45.7002 23.3506C57.216 22.0513 62.5546 12.1657 70.7168 2.60056ZM43.1826 2.92575C44.0094 2.71242 44.9384 2.59375 45.8975 2.71872C48.4313 3.0456 49.9738 4.95584 51.0244 6.38181C52.1101 7.88779 52.998 9.35774 54.0488 10.7334C54.5706 11.4214 55.1248 12.0872 55.7256 12.7226C55.8238 12.8258 55.8909 12.9603 55.9043 13.1045C55.9175 13.2483 55.8772 13.3902 55.79 13.5009C55.7025 13.6119 55.5731 13.6845 55.4297 13.7051C55.2864 13.7256 55.1408 13.6916 55.0176 13.6201C54.215 13.149 53.4502 12.6009 52.7324 12.0019C49.8674 9.73237 47.753 5.91761 45.5049 5.74118C45.038 5.67936 44.5027 5.72929 43.9355 5.87302C35.1895 9.21686 26.7782 17.2862 15.6387 17.9697C14.1352 17.9119 12.6798 17.8498 11.1816 17.7842C10.7369 17.7644 10.2905 17.7441 9.8418 17.7236C9.62521 17.7134 9.39487 17.7027 9.17383 17.6924C9.06239 17.6872 8.95058 17.682 8.83887 17.6767C8.78751 17.6741 8.72474 17.6715 8.67188 17.6689C8.66748 17.6686 8.65552 17.6683 8.65234 17.6679H8.64844V16.5117H8.65234C8.65554 16.5114 8.66755 16.511 8.67188 16.5107C8.72476 16.5081 8.78751 16.5055 8.83887 16.5029C8.95059 16.4977 9.06238 16.4925 9.17383 16.4873C9.39488 16.4769 9.6252 16.4662 9.8418 16.456C10.2905 16.4356 10.7369 16.4152 11.1816 16.3955C12.6798 16.3299 14.1352 16.2687 15.6387 16.2109C25.4606 14.8829 32.8689 7.03298 43.1826 2.92575Z" fill="#F2EDE4"/>
</svg>
